<svg xmlns="http://www.w3.org/2000/svg" width="200" height="200" class="icon" viewBox="0 0 1024 1024"><path fill="#db639b" d="M278.886 148.173c14.336-8.192 32.615-9.37 47.821-2.663 11.367 4.66 19.968 13.824 29.184 21.607 38.144 32.921 75.981 66.304 114.279 99.02h80.435c38.297-32.767 76.083-66.047 114.227-98.969 9.267-7.782 17.869-16.896 29.286-21.658 14.746-6.502 32.461-5.632 46.592 2.048 16.59 8.55 28.11 26.266 28.826 44.954 1.024 13.568-3.84 27.29-12.34 37.786-7.526 8.345-16.537 15.206-24.882 22.681-5.325 4.403-10.138 9.523-16.026 13.21 23.654 0 47.258-.256 70.912.153 31.13.82 61.44 14.592 82.893 37.172 22.63 22.22 35.533 53.555 35.481 85.196.103 108.442 0 216.935.052 325.376-.103 16.384.819 33.024-2.816 49.152-6.656 32.973-28.826 61.594-56.986 79.36a121.34 121.34 0 0 1-64.717 17.767H263.27c-16.998-.103-34.252.87-50.995-2.867-32.102-6.452-60.006-27.648-77.824-54.63a121.1 121.1 0 0 1-19.251-66.97V414.362c.102-16.538-.922-33.178 2.458-49.408 10.24-52.941 58.93-96.103 112.998-98.458 24.627-.768 49.306-.205 73.933-.307-11.623-8.397-21.811-18.535-32.768-27.75a55.04 55.04 0 0 1-20.531-45.927c.716-18.227 11.673-35.584 27.648-44.34m-13.056 221.8c-20.992 3.737-38.912 20.326-44.75 40.754a76.5 76.5 0 0 0-2.354 21.71c.102 89.036-.052 178.073.05 267.16-.409 24.218 16.334 47.156 39.118 54.887 8.14 2.97 16.896 3.021 25.395 3.072 153.19-.102 306.432.051 459.622-.051 22.477.87 44.083-13.107 53.555-33.28 5.786-11.571 5.684-24.73 5.479-37.376V438.016c0-9.114.307-18.483-2.304-27.29a58.78 58.78 0 0 0-36.864-38.656c-9.78-3.584-20.429-3.02-30.669-3.072H292.506c-8.858 0-17.818-.307-26.624.973"/><path fill="#db639b" d="M358.707 455.526c14.643-1.484 29.85 3.277 41.011 12.8 12.442 10.24 19.559 26.112 19.764 42.138.358 19.405.102 38.86.102 58.266 0 12.8-3.38 25.804-11.315 35.942a54.99 54.99 0 0 1-48.487 21.76 54.94 54.94 0 0 1-44.032-28.262c-6.81-11.674-7.372-25.498-7.168-38.605.41-18.842-1.024-37.786.87-56.576a55.296 55.296 0 0 1 49.255-47.463m292.455 0a55.245 55.245 0 0 1 60.723 53.044c.819 18.227.102 36.454.41 54.681.102 12.8-1.434 26.112-8.5 37.12-10.24 17.05-30.31 27.546-50.176 26.112a55.04 55.04 0 0 1-43.366-24.985c-7.936-11.776-9.472-26.266-9.114-40.09.359-18.74-.665-37.478.615-56.166 1.843-25.6 23.91-47.514 49.408-49.664z"/></svg>